<svg width="17" height="18" xmlns="http://www.w3.org/2000/svg"><path d="M14.58.95H2.42C1.045.95 0 1.99 0 3.359v12.11c0 1.368 1.046 2.41 2.42 2.41h12.16c1.374 0 2.42-1.042 2.42-2.41V3.36c0-1.368-1.046-2.41-2.42-2.41zM8.5 14.493c2.812 0 5.1-2.214 5.1-4.883 0-.456-.065-.977-.196-1.368h1.438v6.902a.654.654 0 01-.654.651H2.812a.654.654 0 01-.654-.651V8.177h1.504c-.131.456-.197.912-.197 1.367C3.4 12.28 5.688 14.493 8.5 14.493zm0-1.953c-1.83 0-3.27-1.433-3.27-3.19 0-1.759 1.44-3.191 3.27-3.191s3.27 1.432 3.27 3.19c0 1.823-1.44 3.19-3.27 3.19zm6.277-6.967c0 .39-.327.716-.72.716h-1.83a.724.724 0 01-.72-.716V3.815c0-.391.328-.717.72-.717h1.83c.393 0 .72.326.72.717v1.758z" fill="currentColor"/></svg>