<svg width="15" height="19" xmlns="http://www.w3.org/2000/svg"><path d="M13.005 1.915C11.73.64 9.894 0 7.9 0 4.867 0 3.032 1.277 1.995 2.314.718 3.591 0 5.266 0 7.022c0 2.154.878 3.75 2.394 4.388.08.08.239.08.319.08.319 0 .558-.24.638-.559.08-.16.16-.638.24-.877.08-.4 0-.559-.24-.878-.399-.479-.638-1.117-.638-1.915 0-2.314 1.755-4.787 4.947-4.787 2.553 0 4.149 1.436 4.149 3.75 0 1.436-.32 2.792-.878 3.83-.4.718-1.117 1.516-2.154 1.516-.48 0-.878-.16-1.117-.559-.24-.319-.32-.718-.24-1.117.08-.479.24-.957.4-1.436.239-.878.558-1.755.558-2.394 0-1.117-.718-1.915-1.756-1.915-1.356 0-2.393 1.357-2.393 3.032 0 .878.24 1.437.319 1.676-.16.718-1.197 4.947-1.357 5.665-.08.479-.797 4.149.32 4.388 1.196.32 2.313-3.271 2.393-3.67.08-.32.4-1.596.559-2.314.558.559 1.516.957 2.473.957 1.755 0 3.271-.797 4.389-2.234C14.361 10.293 15 8.38 15 6.224c-.08-1.436-.718-3.112-1.995-4.309z" fill="currentColor"/></svg>