<svg width="19" height="19" viewBox="0 0 19 19" xmlns="http://www.w3.org/2000/svg">
<path d="M9.34163 7.44215V11.4005H14.725C13.9333 13.538 11.875 14.963 9.49997 14.963C6.41247 14.963 3.9583 12.5088 3.9583 9.42132C3.9583 6.33382 6.41247 3.87965 9.49997 3.87965C10.6875 3.87965 11.7958 4.27549 12.7458 4.90882L13.0625 5.14632L15.4375 2.05882L15.1208 1.82132C13.4583 0.633821 11.5583 0.000488281 9.49997 0.000488281C4.27497 0.000488281 -3.05176e-05 4.27549 -3.05176e-05 9.50049C-3.05176e-05 14.7255 4.27497 19.0005 9.49997 19.0005C14.725 19.0005 19 14.7255 19 9.50049V7.52132H9.34163V7.44215Z" fill="currentColor"/>
</svg>
