<svg width="17" height="18" viewBox="0 0 17 18" xmlns="http://www.w3.org/2000/svg">
<path d="M14.5807 0.949707H2.4192C1.04612 0.949707 -3.05176e-05 1.99149 -3.05176e-05 3.35884L-3.05176e-05 15.4696C-3.05176e-05 16.8369 1.04612 17.8787 2.4192 17.8787H14.5807C15.9538 17.8787 17 16.8369 17 15.4696V3.35884C17 1.99149 15.9538 0.949707 14.5807 0.949707ZM8.49997 14.4929C11.3115 14.4929 13.6 12.2791 13.6 9.60956C13.6 9.15377 13.5346 8.63288 13.4038 8.24221H14.8423V15.144C14.8423 15.4696 14.5807 15.7952 14.1884 15.7952H2.81151C2.48459 15.7952 2.15766 15.5347 2.15766 15.144V8.1771H3.66151C3.53074 8.63288 3.46536 9.08866 3.46536 9.54445C3.39997 12.2791 5.68843 14.4929 8.49997 14.4929ZM8.49997 12.5396C6.6692 12.5396 5.23074 11.1071 5.23074 9.34911C5.23074 7.5911 6.6692 6.15864 8.49997 6.15864C10.3307 6.15864 11.7692 7.5911 11.7692 9.34911C11.7692 11.1722 10.3307 12.5396 8.49997 12.5396ZM14.7769 5.57263C14.7769 5.9633 14.45 6.28886 14.0577 6.28886H12.2269C11.8346 6.28886 11.5077 5.9633 11.5077 5.57263V3.81462C11.5077 3.42395 11.8346 3.09839 12.2269 3.09839H14.0577C14.45 3.09839 14.7769 3.42395 14.7769 3.81462V5.57263Z" fill="currentColor"/>
</svg>
