<svg width="15" height="15" viewBox="0 0 15 15" xmlns="http://www.w3.org/2000/svg">
<path d="M15 8.7444V14.2601H11.7713V9.08072C11.7713 7.80269 11.3004 6.92825 10.1569 6.92825C9.28248 6.92825 8.74436 7.53363 8.54257 8.07175C8.47531 8.27354 8.40804 8.5426 8.40804 8.87892V14.2601H5.17934C5.17934 14.2601 5.24661 5.5157 5.17934 4.64126H8.40804V5.98655C8.81163 5.3139 9.6188 4.3722 11.3004 4.3722C13.3856 4.3722 15 5.78475 15 8.7444ZM1.81611 0C0.739878 0 -3.05176e-05 0.73991 -3.05176e-05 1.68161C-3.05176e-05 2.62332 0.672614 3.36323 1.74885 3.36323C2.89235 3.36323 3.56499 2.62332 3.56499 1.68161C3.63226 0.672646 2.95961 0 1.81611 0ZM0.201763 14.2601H3.43046V4.64126H0.201763L0.201763 14.2601Z" fill="white"/>
</svg>
