<svg width="15" height="19" viewBox="0 0 15 19" xmlns="http://www.w3.org/2000/svg">
<path d="M13.0053 1.91539C11.7287 0.638794 9.89362 0.000488281 7.89894 0.000488281C4.86702 0.000488281 3.03192 1.27709 1.99468 2.31433C0.718086 3.59092 0 5.26645 0 7.02177C0 9.17603 0.87766 10.7718 2.39362 11.4101C2.47341 11.4899 2.63298 11.4899 2.71276 11.4899C3.03191 11.4899 3.27129 11.2505 3.35108 10.9313C3.43086 10.7718 3.51064 10.2931 3.59043 10.0537C3.67022 9.65475 3.59044 9.49518 3.35108 9.17603C2.95214 8.6973 2.71276 8.05901 2.71276 7.26114C2.71276 4.9473 4.46809 2.4739 7.65958 2.4739C10.2128 2.4739 11.8085 3.91007 11.8085 6.2239C11.8085 7.66007 11.4894 9.01646 10.9309 10.0537C10.5319 10.7718 9.81384 11.5696 8.7766 11.5696C8.29788 11.5696 7.89895 11.4101 7.65958 11.0111C7.42022 10.692 7.34042 10.2931 7.42021 9.89412C7.49999 9.41539 7.65957 8.93667 7.81914 8.45794C8.05851 7.58029 8.37766 6.70262 8.37766 6.06433C8.37766 4.9473 7.65957 4.14942 6.62233 4.14942C5.26595 4.14942 4.22872 5.50581 4.22872 7.18134C4.22872 8.059 4.4681 8.61752 4.54788 8.85688C4.38831 9.57497 3.35107 13.8037 3.19149 14.5218C3.1117 15.0005 2.39361 18.6707 3.51064 18.9101C4.70744 19.2292 5.82447 15.6388 5.90425 15.2399C5.98404 14.9207 6.3032 13.6441 6.46277 12.926C7.02129 13.4845 7.97874 13.8835 8.93619 13.8835C10.6915 13.8835 12.2075 13.0856 13.3245 11.6494C14.3617 10.2931 15 8.37816 15 6.2239C14.9202 4.78773 14.2819 3.1122 13.0053 1.91539Z" fill="currentColor"/>
</svg>
