<svg width="20" height="19" viewBox="0 0 20 19" xmlns="http://www.w3.org/2000/svg">
<path d="M0.350667 9.28883L4.94877 10.9962L6.74123 16.7392C6.81916 17.1273 7.28677 17.2049 7.5985 16.972L10.1703 14.8766C10.4041 14.6438 10.7938 14.6438 11.1055 14.8766L15.7036 18.2138C16.0153 18.4466 16.4829 18.2914 16.5609 17.9033L19.9899 1.60561C20.0679 1.21757 19.6782 0.829534 19.2885 0.984751L0.350667 8.27992C-0.116935 8.43514 -0.116935 9.13361 0.350667 9.28883ZM6.50744 10.1425L15.5477 4.63233C15.7036 4.55473 15.8595 4.78755 15.7036 4.86516L8.2999 11.7723C8.0661 12.0051 7.83229 12.3155 7.83229 12.7036L7.5985 14.5662C7.5985 14.799 7.20883 14.8766 7.1309 14.5662L6.19568 11.1514C5.96188 10.7634 6.11777 10.2977 6.50744 10.1425Z" fill="currentColor"/>
</svg>
