<?xml version="1.0" encoding="utf-8"?><svg viewBox="0 0 20 19" xmlns="http://www.w3.org/2000/svg" xmlns:xlink="http://www.w3.org/1999/xlink"><style>:root>svg{display:none}:root>svg:target{display:block}</style><svg viewBox="0 0 17 18" id="facebook" xmlns="http://www.w3.org/2000/svg"><path d="M17 3.761c0-1.49-1.321-2.807-2.819-2.807H2.82C1.32.954 0 2.27 0 3.761v11.316c0 1.49 1.321 2.806 2.819 2.806h5.725V11.48H6.43V8.673h2.114v-1.14c0-1.93 1.41-3.596 3.171-3.596h2.29v2.807h-2.29c-.264 0-.528.263-.528.789v1.14h2.818v2.807h-2.819v6.403h2.995c1.498 0 2.819-1.315 2.819-2.806V3.76z" fill="currentColor"/></svg><svg viewBox="0 0 19 19" id="google_plus" xmlns="http://www.w3.org/2000/svg"><path d="M9.342 7.442V11.4h5.383c-.792 2.138-2.85 3.563-5.225 3.563a5.508 5.508 0 01-5.542-5.542A5.508 5.508 0 019.5 3.88c1.188 0 2.296.395 3.246 1.029l.316.237 2.376-3.087-.317-.238C13.458.634 11.558.001 9.5.001 4.275 0 0 4.274 0 9.5 0 14.725 4.275 19 9.5 19S19 14.724 19 9.5V7.52H9.342v-.079z" fill="currentColor"/></svg><svg viewBox="0 0 17 18" id="instagram" xmlns="http://www.w3.org/2000/svg"><path d="M14.58.95H2.42C1.045.95 0 1.99 0 3.359v12.11c0 1.368 1.046 2.41 2.42 2.41h12.16c1.374 0 2.42-1.042 2.42-2.41V3.36c0-1.368-1.046-2.41-2.42-2.41zM8.5 14.493c2.812 0 5.1-2.214 5.1-4.883 0-.456-.065-.977-.196-1.368h1.438v6.902a.654.654 0 01-.654.651H2.812a.654.654 0 01-.654-.651V8.177h1.504c-.131.456-.197.912-.197 1.367C3.4 12.28 5.688 14.493 8.5 14.493zm0-1.953c-1.83 0-3.27-1.433-3.27-3.19 0-1.759 1.44-3.191 3.27-3.191s3.27 1.432 3.27 3.19c0 1.823-1.44 3.19-3.27 3.19zm6.277-6.967c0 .39-.327.716-.72.716h-1.83a.724.724 0 01-.72-.716V3.815c0-.391.328-.717.72-.717h1.83c.393 0 .72.326.72.717v1.758z" fill="currentColor"/></svg><svg viewBox="0 0 15 15" id="linkedin" xmlns="http://www.w3.org/2000/svg"><path d="M15 8.744v5.516h-3.229V9.08c0-1.277-.47-2.152-1.614-2.152-.875 0-1.413.606-1.614 1.144-.068.202-.135.47-.135.807v5.381H5.179s.068-8.744 0-9.619h3.229v1.346c.404-.673 1.21-1.615 2.892-1.615 2.086 0 3.7 1.413 3.7 4.372zM1.816 0C.74 0 0 .74 0 1.682c0 .941.673 1.681 1.749 1.681 1.143 0 1.816-.74 1.816-1.681C3.632.672 2.96 0 1.816 0zM.202 14.26H3.43V4.641H.202v9.62z" fill="currentColor"/></svg><svg viewBox="0 0 15 19" id="pinterest" xmlns="http://www.w3.org/2000/svg"><path d="M13.005 1.915C11.73.64 9.894 0 7.9 0 4.867 0 3.032 1.277 1.995 2.314.718 3.591 0 5.266 0 7.022c0 2.154.878 3.75 2.394 4.388.08.08.239.08.319.08.319 0 .558-.24.638-.559.08-.16.16-.638.24-.877.08-.4 0-.559-.24-.878-.399-.479-.638-1.117-.638-1.915 0-2.314 1.755-4.787 4.947-4.787 2.553 0 4.149 1.436 4.149 3.75 0 1.436-.32 2.792-.878 3.83-.4.718-1.117 1.516-2.154 1.516-.48 0-.878-.16-1.117-.559-.24-.319-.32-.718-.24-1.117.08-.479.24-.957.4-1.436.239-.878.558-1.755.558-2.394 0-1.117-.718-1.915-1.756-1.915-1.356 0-2.393 1.357-2.393 3.032 0 .878.24 1.437.319 1.676-.16.718-1.197 4.947-1.357 5.665-.08.479-.797 4.149.32 4.388 1.196.32 2.313-3.271 2.393-3.67.08-.32.4-1.596.559-2.314.558.559 1.516.957 2.473.957 1.755 0 3.271-.797 4.389-2.234C14.361 10.293 15 8.38 15 6.224c-.08-1.436-.718-3.112-1.995-4.309z" fill="currentColor"/></svg><svg viewBox="0 0 20 19" id="telegram" xmlns="http://www.w3.org/2000/svg"><path d="M.35 9.289l4.599 1.707L6.74 16.74c.078.388.546.466.857.233l2.572-2.095c.234-.233.624-.233.935 0l4.599 3.337c.311.233.779.077.857-.31L19.99 1.605c.078-.388-.312-.776-.701-.621L.35 8.28c-.468.155-.468.854 0 1.009zm6.157.854l9.04-5.51c.157-.078.313.155.157.232L8.3 11.772c-.234.233-.468.543-.468.932l-.234 1.862c0 .233-.39.31-.467 0l-.935-3.415c-.234-.388-.078-.853.311-1.008z" fill="currentColor"/></svg></svg>